<svg width="400" height="408" viewBox="0 0 400 408" fill="none" xmlns="http://www.w3.org/2000/svg">
<path d="M124.802 6.33686C126.139 5.53545 127.578 4.9166 129.08 4.49681L129.954 0.273884L137.093 0.145081L138.124 4.3404C139.637 4.71357 141.094 5.28591 142.457 6.04245L146.063 3.67798L151.206 8.64613L148.971 12.3262C149.772 13.6603 150.391 15.0962 150.811 16.5952L155.034 17.4692L155.162 24.6086L150.967 25.6298C150.596 27.1437 150.023 28.6011 149.265 29.9631L151.63 33.5788L146.661 38.7126L142.981 36.4769C141.647 37.2788 140.211 37.8977 138.712 38.317L137.792 42.5399L130.653 42.6687L129.622 38.4734C128.112 38.1002 126.658 37.5278 125.298 36.7713L121.683 39.1358L116.521 34.1769L118.757 30.4968C117.956 29.1592 117.337 27.7204 116.917 26.2186L112.694 25.2986L112.565 18.1592L116.761 17.1288C117.134 15.6154 117.706 14.1582 118.463 12.7954L116.098 9.17974L121.121 4.1012L124.802 6.33686ZM128.61 15.8499C127.557 16.9398 126.851 18.3176 126.58 19.809C126.31 21.3004 126.488 22.8384 127.092 24.2287C127.696 25.6189 128.698 26.7989 129.973 27.6194C131.247 28.4399 132.736 28.8641 134.251 28.8384C135.767 28.8127 137.241 28.3382 138.487 27.4749C139.732 26.6115 140.694 25.3982 141.25 23.9883C141.807 22.5784 141.932 21.0352 141.612 19.5538C141.291 18.0724 140.538 16.7195 139.448 15.6659C138.723 14.9618 137.866 14.4079 136.927 14.0359C135.987 13.6639 134.983 13.4813 133.973 13.4984C132.962 13.5155 131.965 13.732 131.039 14.1356C130.112 14.5391 129.274 15.1217 128.574 15.8499H128.61Z" fill="#DDDEE8"/>
<path d="M126.458 243.281C127.228 242.816 128.057 242.457 128.923 242.213L129.429 239.775L133.551 239.702L134.14 242.121C135.014 242.333 135.856 242.661 136.642 243.097L138.722 241.735L141.684 244.596L140.442 246.703C140.907 247.474 141.265 248.303 141.509 249.169L143.947 249.675L144.021 253.796L141.601 254.385C141.39 255.259 141.062 256.101 140.626 256.888L141.988 258.967L139.126 261.929L137.001 260.641C136.229 261.105 135.4 261.467 134.536 261.718L134.002 264.184L129.88 264.257L129.291 261.838C128.417 261.626 127.576 261.298 126.789 260.862L124.71 262.224L121.747 259.363L123.035 257.237C122.572 256.465 122.21 255.637 121.959 254.772L119.53 254.266L119.456 250.144L121.876 249.555C122.087 248.681 122.415 247.839 122.851 247.053L121.49 244.973L124.351 242.011L126.476 243.299L126.458 243.281ZM128.657 248.801C128.047 249.43 127.638 250.226 127.482 251.087C127.325 251.949 127.427 252.838 127.776 253.641C128.125 254.445 128.704 255.127 129.441 255.601C130.177 256.075 131.038 256.32 131.914 256.304C132.789 256.289 133.641 256.014 134.36 255.514C135.08 255.014 135.634 254.312 135.955 253.497C136.275 252.682 136.346 251.79 136.159 250.934C135.972 250.078 135.535 249.298 134.904 248.69C134.489 248.285 133.998 247.965 133.459 247.749C132.921 247.533 132.345 247.426 131.765 247.433C131.185 247.44 130.612 247.561 130.078 247.789C129.545 248.017 129.062 248.349 128.657 248.764V248.801Z" fill="#DDDEE8"/>
<path d="M36.7365 29.0523C37.2629 28.734 37.829 28.4865 38.4202 28.3163L38.7698 26.651H41.5759L41.9991 28.2519C42.5953 28.4034 43.1702 28.629 43.7103 28.9235L45.1272 28.0035L47.1512 29.9539L46.2312 31.4076C46.5495 31.934 46.797 32.5001 46.9672 33.0912L48.6325 33.4408V36.2009L46.9764 36.6057C46.8324 37.203 46.6096 37.7784 46.314 38.317L47.234 39.7338L45.2836 41.7579L43.8299 40.8378C43.3035 41.1562 42.7374 41.4037 42.1463 41.5739L41.7967 43.2391H39.0366L38.6318 41.5831C38.0345 41.439 37.4591 41.2163 36.9205 40.9206L35.5037 41.8407L33.4796 39.881L34.3997 38.4366C34.0813 37.9102 33.8339 37.3441 33.6636 36.7529L31.9984 36.4033L31.9524 33.6432L33.5992 33.2384C33.7507 32.6422 33.9763 32.0673 34.2709 31.5272L33.3508 30.1103L35.3013 28.0863L36.7549 29.0063L36.7365 29.0523ZM38.2362 32.7968C37.8218 33.2262 37.5439 33.7687 37.4378 34.3559C37.3317 34.9432 37.4021 35.5487 37.64 36.0959C37.878 36.6431 38.2728 37.1075 38.7747 37.4304C39.2765 37.7533 39.8628 37.9201 40.4594 37.9098C41.0561 37.8995 41.6363 37.7126 42.1267 37.3726C42.6171 37.0326 42.9957 36.5549 43.2146 35.9998C43.4336 35.4447 43.483 34.8371 43.3567 34.2539C43.2304 33.6707 42.9341 33.138 42.5051 32.7232C42.2201 32.4476 41.8835 32.2308 41.5146 32.0853C41.1458 31.9399 40.7518 31.8685 40.3554 31.8753C39.9589 31.8822 39.5677 31.9671 39.2041 32.1252C38.8404 32.2833 38.5116 32.5115 38.2362 32.7968Z" fill="#DDDEE8"/>
<path d="M174.078 23.1365C175.116 22.5093 176.233 22.0235 177.4 21.6921L178.08 18.4076L183.601 18.3064L184.401 21.5725C185.581 21.8609 186.716 22.3065 187.778 22.8973L190.538 21.0573L194.613 24.9766L192.884 27.8103C193.513 28.8503 193.999 29.9706 194.328 31.1408L197.622 31.8216L197.714 37.3418L194.457 38.1422C194.16 39.328 193.709 40.4695 193.114 41.5371L194.954 44.3524L191.099 48.3453L188.228 46.6064C187.189 47.2317 186.073 47.7174 184.907 48.0509L184.217 51.3354L178.697 51.4366L177.896 48.1705C176.704 47.8888 175.556 47.4462 174.483 46.8548L171.723 48.6949L167.721 44.84L169.46 41.9695C168.834 40.9278 168.348 39.8079 168.015 38.639L164.731 37.9582L164.63 32.438L167.896 31.6376C168.184 30.4608 168.63 29.3282 169.221 28.2703L167.381 25.455L171.235 21.4621L174.078 23.1365ZM177.041 30.4968C176.222 31.3457 175.674 32.4184 175.465 33.579C175.256 34.7396 175.396 35.9361 175.868 37.0171C176.339 38.0981 177.12 39.0151 178.113 39.652C179.105 40.2889 180.264 40.6172 181.443 40.5953C182.622 40.5735 183.769 40.2024 184.737 39.5291C185.705 38.8558 186.452 37.9104 186.882 36.8127C187.313 35.715 187.409 34.5141 187.157 33.362C186.905 32.2099 186.318 31.1584 185.468 30.3403C184.9 29.801 184.232 29.3791 183.5 29.0987C182.769 28.8183 181.99 28.685 181.207 28.7063C180.424 28.7277 179.653 28.9033 178.938 29.2232C178.223 29.5431 177.578 30.0009 177.041 30.5704V30.4968Z" fill="#AEA9B1"/>
<path d="M320.96 160.313C322.291 159.511 323.724 158.892 325.22 158.472L326.14 154.25L333.27 154.121L334.301 158.316C335.815 158.685 337.273 159.258 338.634 160.018L342.231 157.654L347.365 162.613L345.139 166.293C345.935 167.629 346.554 169.065 346.979 170.562L351.202 171.482L351.331 178.612L347.135 179.642C346.766 181.154 346.194 182.609 345.433 183.966L347.798 187.573L342.848 192.651L339.168 190.416C337.833 191.216 336.397 191.835 334.899 192.256L333.979 196.479L326.849 196.598L325.818 192.421C324.308 192.048 322.854 191.476 321.494 190.719L317.888 193.084L312.754 188.125L314.989 184.445C314.188 183.114 313.569 181.681 313.149 180.185L308.926 179.265L308.807 172.181L312.993 171.15C313.366 169.637 313.939 168.18 314.695 166.817L312.331 163.22L317.29 158.086L320.97 160.322L320.96 160.313ZM324.76 169.816C323.71 170.906 323.006 172.283 322.738 173.773C322.469 175.262 322.649 176.798 323.253 178.186C323.858 179.573 324.86 180.751 326.133 181.569C327.407 182.387 328.894 182.809 330.408 182.782C331.921 182.755 333.392 182.28 334.636 181.417C335.879 180.554 336.839 179.342 337.393 177.933C337.948 176.525 338.073 174.984 337.751 173.505C337.43 172.025 336.678 170.675 335.589 169.623C334.866 168.923 334.012 168.373 333.076 168.004C332.14 167.635 331.14 167.454 330.134 167.472C329.128 167.49 328.136 167.706 327.214 168.108C326.291 168.511 325.458 169.091 324.76 169.816Z" fill="#DDDEE8"/>
<path d="M371.369 21.4989C371.374 18.5272 370.694 15.5943 369.381 12.9283C368.069 10.2623 366.158 7.93509 363.8 6.12762C361.441 4.32015 358.697 3.08117 355.781 2.50703C352.865 1.93289 349.857 2.03907 346.989 2.81731C344.121 3.59555 341.471 5.02488 339.245 6.99413C337.02 8.96338 335.278 11.4195 334.157 14.1714C333.035 16.9233 332.563 19.8968 332.778 22.8607C332.993 25.8247 333.889 28.6991 335.396 31.2604L335.451 31.334C336.187 32.5852 337.116 33.4777 338.055 34.7841L349.288 49.6517C349.614 50.0737 350.032 50.4154 350.511 50.6505C350.989 50.8856 351.515 51.0078 352.048 51.0078C352.581 51.0078 353.107 50.8856 353.586 50.6505C354.064 50.4154 354.483 50.0737 354.808 49.6517L365.849 35.0325C366.852 33.8589 367.789 32.6303 368.655 31.3524L368.701 31.2972C370.453 28.3296 371.375 24.9452 371.369 21.4989ZM352.048 29.908C350.367 29.9061 348.725 29.406 347.328 28.4708C345.931 27.5356 344.843 26.2073 344.201 24.6537C343.559 23.1002 343.392 21.3912 343.721 19.7428C344.05 18.0944 344.86 16.5805 346.05 15.3925C347.239 14.2045 348.754 13.3958 350.402 13.0685C352.051 12.7413 353.76 12.9102 355.313 13.5538C356.866 14.1975 358.193 15.2871 359.127 16.6849C360.06 18.0827 360.559 19.7259 360.559 21.4069C360.559 22.5241 360.338 23.6302 359.911 24.6622C359.483 25.6942 358.856 26.6318 358.065 27.4213C357.275 28.2108 356.337 28.8368 355.304 29.2635C354.272 29.6902 353.165 29.9092 352.048 29.908Z" fill="#DDDEE8"/>
<path d="M31.2073 299.559C33.1652 298.197 34.6805 296.291 35.5652 294.077C36.45 291.862 36.6654 289.437 36.1846 287.101C34.9242 280.486 28.8244 276.061 22.6694 277.248C16.5145 278.435 12.4571 284.746 13.7176 291.37C14.1292 293.74 15.2345 295.934 16.8935 297.674C18.5525 299.415 20.6907 300.625 23.0374 301.15C6.27456 307.112 10.7183 325.733 10.7183 325.733L51.5951 317.968C51.5951 317.968 48.835 298.813 31.2073 299.559Z" fill="#AEA9B1"/>
<path d="M80.7323 378.938L72.3601 376.859C72.3601 376.859 70.6212 383.925 63.2426 382.241C61.816 381.943 60.5177 381.208 59.5284 380.138C58.539 379.068 57.9078 377.716 57.7225 376.27C57.5484 375.06 57.6636 373.825 58.0586 372.667C58.4536 371.509 59.1171 370.461 59.9949 369.609C62.0006 367.604 65.6623 366.233 71.0352 368.634L75.7182 349.654L67.3919 347.602L64.6319 358.725C64.6319 358.725 52.2207 358.863 49.0558 371.725C46.0197 384.035 56.3516 389.611 61.0806 390.77C64.7055 391.662 77.227 393.825 80.7323 378.938Z" fill="#AEA9B1"/>
<path d="M68.2493 343.672L76.6912 345.752L78.6345 337.864L70.1926 335.784L68.2493 343.672Z" fill="#AEA9B1"/>
<path d="M400 407.616C400 407.745 310.445 407.855 200.005 407.855C89.5646 407.855 0 407.708 0 407.616C0 407.524 89.5278 407.377 200.005 407.377C310.481 407.377 400 407.478 400 407.616Z" fill="#1D192B"/>
<path d="M22.6786 176.045H41.8979L40.2051 184.666H5.58447L6.95531 177.811L27.7939 161.481C32.9461 157.359 34.5193 154.949 34.5193 151.94C34.5193 148.932 32.2284 146.908 27.7939 146.908C25.9222 146.936 24.08 147.379 22.4 148.204C20.7201 149.03 19.2441 150.218 18.0784 151.683L10.9574 146.521C14.6375 141.489 21.4733 138.158 29.358 138.158C39.0274 138.158 45.3572 143.32 45.3572 150.441C45.3572 155.86 42.8824 160.432 34.8413 166.642L22.6786 176.045Z" fill="#21005D"/>
<path d="M87.6878 175.07H80.1804L78.2851 184.666H67.9624L69.9221 175.07H45.293L46.6638 167.949L73.5838 138.94H85.1393L60.0594 166.44H72.0749L73.777 157.884H83.6397L81.9376 166.44H89.4543L87.6878 175.07Z" fill="#21005D"/>
<path d="M117.864 129.666H127.405L93.8334 191.198H84.3203L117.864 129.666Z" fill="#21005D"/>
<path d="M161.437 138.94L160.066 145.804L135.639 184.666H123.881L147.324 147.561H132.502L130.993 155.013H121.591L124.801 138.94H161.437Z" fill="#21005D"/>
<path d="M1.3064 220.74L3.98367 215.661C6.36982 217.186 9.138 218.005 11.9695 218.026C14.5824 218.026 16.0912 217.207 16.0912 215.901C16.0912 212.671 4.42529 214.456 4.42529 206.912C4.42529 201.732 8.85061 198.337 15.9532 198.337C18.9656 198.237 21.9494 198.949 24.5923 200.398L22.1266 205.44C20.1467 204.221 17.8641 203.584 15.5392 203.6C12.7239 203.6 11.2151 204.63 11.2151 205.937C11.2151 209.23 22.881 207.344 22.881 214.751C22.881 219.893 18.3545 223.288 11.3255 223.288C7.20377 223.307 3.46846 222.212 1.3064 220.74Z" fill="#21005D"/>
<path d="M34.9793 204.069L34.1972 208.117H44.8603L43.8391 213.186H33.1668L32.302 217.584H44.8971L43.7931 222.828H24.5186L29.3579 198.862H48.154L47.0868 204.115L34.9793 204.069Z" fill="#21005D"/>
<path d="M65.6714 215.625L69.7563 222.828H62.6537L59.084 216.453H55.6615L54.3919 222.828H47.6021L52.3954 198.862H62.6537C68.7903 198.862 72.3232 201.714 72.3232 206.516C72.3714 208.555 71.7456 210.552 70.543 212.199C69.3403 213.846 67.628 215.05 65.6714 215.625ZM61.6969 204.17H58.1272L56.7195 211.199H60.7676C63.7577 211.199 65.5058 209.764 65.5058 207.123C65.469 205.099 64.0245 204.17 61.6969 204.17Z" fill="#21005D"/>
<path d="M102.086 198.862L87.0805 222.828H80.3919L74.8901 198.862H81.8547L85.2864 214.502L95.0939 198.862H102.086Z" fill="#21005D"/>
<path d="M103.521 198.862H110.32L105.481 222.828H98.6912L103.521 198.862Z" fill="#21005D"/>
<path d="M111.378 212.745C111.378 204.409 117.515 198.337 126.43 198.337C130.855 198.337 134.462 199.956 136.173 202.864L131.242 206.774C130.691 205.882 129.91 205.154 128.98 204.669C128.051 204.183 127.008 203.957 125.961 204.014C121.296 204.014 118.205 207.611 118.205 212.34C118.205 215.569 120.404 217.731 124.075 217.731C125.196 217.737 126.303 217.492 127.317 217.014C128.331 216.537 129.226 215.839 129.935 214.971L133.947 218.909C131.242 222.175 127.709 223.371 123.422 223.371C116.08 223.307 111.378 219.019 111.378 212.745Z" fill="#21005D"/>
<path d="M146.082 204.069L145.291 208.117H155.954L154.96 213.186H144.26L143.405 217.584H155.991L154.896 222.828H135.658L140.442 198.862H159.238L158.18 204.115L146.082 204.069Z" fill="#21005D"/>
<path d="M27.4168 125.407H14.012C14.012 106.749 21.5654 87.6856 34.731 73.0572C48.5866 57.6835 66.5731 49.2193 85.3324 49.2193C123.67 49.2193 150.452 77.2065 150.452 117.301H137.075C137.075 84.6127 116.291 62.6517 85.36 62.6517C55.036 62.6241 27.4168 92.5434 27.4168 125.407Z" fill="#7E57C2"/>
<path d="M34.7678 121.681C36.9114 121.681 38.6503 121.892 38.6411 122.085C38.6319 122.279 36.9022 122.426 34.7678 122.426C32.6333 122.426 30.8853 122.251 30.8853 122.021C30.8853 121.791 32.6333 121.644 34.7678 121.681Z" fill="#F6EDFF"/>
<path d="M44.0232 92.295C45.8633 93.4726 47.1053 94.6778 46.9029 94.9998C46.7005 95.3218 45.0628 94.6686 43.2228 93.5554C41.3827 92.4422 40.1591 91.2185 40.3523 90.8505C40.5455 90.4825 42.2291 91.1265 44.0232 92.295Z" fill="#F6EDFF"/>
<path d="M67.2079 72.0452C68.082 74.0048 68.5144 75.7253 68.128 75.8725C67.7415 76.0197 66.7571 74.5937 65.8187 72.6708C64.8803 70.7479 64.4478 68.9907 64.8987 68.8435C65.3495 68.6963 66.3431 70.0579 67.2079 72.0452Z" fill="#F6EDFF"/>
<path d="M97.7527 69.6347C97.2191 71.714 96.4922 73.3148 96.1334 73.2412C95.7746 73.1676 95.8482 71.4012 96.3082 69.2943C96.7683 67.1874 97.4859 65.6142 97.9275 65.697C98.3691 65.7798 98.2863 67.5647 97.7527 69.6347Z" fill="#F6EDFF"/>
<path d="M122.704 87.1704C120.919 88.348 119.309 89.0656 119.097 88.7712C118.886 88.4768 120.128 87.2072 121.858 85.9468C123.587 84.6863 125.206 83.9779 125.464 84.3459C125.722 84.7139 124.489 85.9836 122.704 87.1704Z" fill="#F6EDFF"/>
<path d="M130.92 116.059C128.785 116.059 127.046 115.894 127.046 115.71C127.046 115.526 128.776 115.342 130.92 115.314C133.063 115.286 134.793 115.443 134.802 115.664C134.811 115.884 133.082 116.059 130.92 116.059Z" fill="#F6EDFF"/>
<path d="M81.6983 120.052C81.0304 120.057 80.3811 119.833 79.8582 119.417L57.3268 101.937C56.7021 101.449 56.2969 100.733 56.2003 99.9459C56.1037 99.1591 56.3235 98.3662 56.8115 97.7415C57.2996 97.1169 58.0157 96.7117 58.8025 96.615C59.5893 96.5184 60.3822 96.7383 61.0069 97.2263L81.5603 113.161L109.943 87.0968C110.523 86.5588 111.292 86.273 112.082 86.3023C112.873 86.3316 113.619 86.6737 114.157 87.2532C114.695 87.8327 114.981 88.6022 114.951 89.3925C114.922 90.1827 114.58 90.9289 114 91.4669L83.7591 119.252C83.1992 119.771 82.4621 120.058 81.6983 120.052Z" fill="#7E57C2"/>
<path d="M96.9799 29.5123H71.1455C70.7441 29.5123 70.4187 29.8377 70.4187 30.2392V39.5958C70.4187 39.9972 70.7441 40.3226 71.1455 40.3226H96.9799C97.3813 40.3226 97.7067 39.9972 97.7067 39.5958V30.2392C97.7067 29.8377 97.3813 29.5123 96.9799 29.5123Z" fill="#7E57C2"/>
<path d="M91.1101 34.9221H77.0061V47.7105H91.1101V34.9221Z" fill="#7E57C2"/>
<path d="M25.8439 62.5963L15.2493 75.717C14.8375 76.227 14.9171 76.9742 15.427 77.386L22.671 83.2353C23.1809 83.6471 23.9282 83.5675 24.34 83.0575L34.9346 69.9368C35.3464 69.4269 35.2668 68.6796 34.7568 68.2678L27.5129 62.4185C27.0029 62.0068 26.2557 62.0864 25.8439 62.5963Z" fill="#7E57C2"/>
<path d="M96.98 40.3226C96.98 40.479 91.193 40.5987 84.0996 40.5987C77.0062 40.5987 71.2192 40.479 71.2192 40.3226C71.2192 40.1662 76.997 40.0466 84.0996 40.0466C91.2022 40.0466 96.98 40.1754 96.98 40.3226Z" fill="#F6EDFF"/>
<path d="M25.6042 80.8038C25.457 80.9694 23.5065 79.479 21.0961 77.6665C18.6856 75.8541 16.7259 74.382 16.8455 74.198C16.9651 74.014 19.1272 75.2101 21.5653 77.0409C24.0033 78.8718 25.7422 80.6474 25.6042 80.8038Z" fill="#F6EDFF"/>
<path d="M27.8492 77.5009C27.702 77.6665 25.7515 76.1761 23.3411 74.3636C20.9306 72.5512 18.9617 71.0792 19.0813 70.8952C19.201 70.7111 21.3722 71.9072 23.8103 73.7472C26.2484 75.5873 27.9872 77.3445 27.8492 77.5009Z" fill="#F6EDFF"/>
<path d="M30.6001 74.7317C30.4621 74.8973 28.5116 73.4068 26.1012 71.5944C23.6907 69.7819 21.7586 68.3099 21.8414 68.1259C21.9242 67.9419 24.1323 69.1379 26.5612 70.9779C28.99 72.818 30.7473 74.5753 30.6001 74.7317Z" fill="#F6EDFF"/>
<path d="M33.2682 71.4287C33.1302 71.5943 31.1705 70.1039 28.76 68.2915C26.3496 66.479 24.3899 65.007 24.5187 64.8229C24.6475 64.6389 26.8096 65.835 29.2384 67.675C31.6673 69.5151 33.4062 71.2723 33.2682 71.4287Z" fill="#F6EDFF"/>
<path d="M148.913 66.7433L137.509 54.3197C137.065 53.8368 136.315 53.8047 135.832 54.248L128.973 60.5442C128.49 60.9874 128.458 61.7382 128.901 62.2211L140.305 74.6446C140.748 75.1275 141.499 75.1596 141.982 74.7164L148.841 68.4202C149.324 67.9769 149.356 67.2262 148.913 66.7433Z" fill="#7E57C2"/>
<path d="M130.938 63.8201C130.8 63.6545 132.558 61.9801 134.71 59.8272C136.863 57.6743 138.602 55.9907 138.768 56.1471C138.933 56.3035 137.434 58.2632 135.253 60.3976C133.073 62.5321 131.067 63.9765 130.938 63.8201Z" fill="#F6EDFF"/>
<path d="M133.873 66.525C133.726 66.3594 135.492 64.685 137.636 62.5321C139.78 60.3792 141.537 58.6956 141.703 58.852C141.868 59.0084 140.359 60.9681 138.188 63.1025C136.017 65.237 134.002 66.6814 133.873 66.525Z" fill="#F6EDFF"/>
<path d="M136.201 69.6623C136.054 69.4967 137.82 67.8223 139.964 65.6694C142.107 63.5165 143.865 61.8329 144.03 61.9893C144.196 62.1457 142.687 64.0962 140.506 66.2306C138.326 68.3651 136.33 69.8187 136.201 69.6623Z" fill="#F6EDFF"/>
<path d="M139.071 72.818C138.924 72.6524 140.69 70.9779 142.834 68.8251C144.978 66.6722 146.735 64.9886 146.901 65.145C147.066 65.3014 145.557 67.261 143.377 69.3955C141.196 71.5299 139.2 72.9468 139.071 72.818Z" fill="#F6EDFF"/>
<path d="M74.0436 40.3134C73.832 40.3134 73.6572 37.9214 73.6572 34.9865C73.6572 32.0516 73.832 29.6503 74.0436 29.6503C74.2552 29.6503 74.4392 32.0424 74.4392 34.9865C74.4392 37.9306 74.2644 40.3134 74.0436 40.3134Z" fill="#F6EDFF"/>
<path d="M79.1039 40.3134C78.8923 40.3134 78.7175 37.9214 78.7175 34.9865C78.7175 32.0516 78.8923 29.6503 79.1039 29.6503C79.3155 29.6503 79.4903 32.0424 79.4903 34.9865C79.4903 37.9306 79.3155 40.3134 79.1039 40.3134Z" fill="#F6EDFF"/>
<path d="M84.1547 40.3134C83.9431 40.3134 83.7683 37.9214 83.7683 34.9865C83.7683 32.0516 83.9431 29.6503 84.1547 29.6503C84.3663 29.6503 84.5411 32.0424 84.5411 34.9865C84.5411 37.9306 84.3755 40.3134 84.1547 40.3134Z" fill="#F6EDFF"/>
<path d="M89.215 40.3134C88.9942 40.3134 88.8286 37.9214 88.8286 34.9865C88.8286 32.0516 88.9942 29.6503 89.215 29.6503C89.4358 29.6503 89.6014 32.0424 89.6014 34.9865C89.6014 37.9306 89.4266 40.3134 89.215 40.3134Z" fill="#F6EDFF"/>
<path d="M94.2658 40.3134C94.0542 40.3134 93.8794 37.9214 93.8794 34.9865C93.8794 32.0516 94.0542 29.6503 94.2658 29.6503C94.4774 29.6503 94.6522 32.0424 94.6522 34.9865C94.6522 37.9306 94.4406 40.3134 94.2658 40.3134Z" fill="#F6EDFF"/>
<path d="M87.1668 120.822C89.804 118.185 89.804 113.909 87.1668 111.272C84.5296 108.635 80.2539 108.635 77.6166 111.272C74.9794 113.909 74.9794 118.185 77.6166 120.822C80.2538 123.459 84.5296 123.459 87.1668 120.822Z" fill="#7E57C2"/>
<path d="M89.1414 116.059C89.077 116.059 89.0862 115.461 88.8009 114.44C88.3918 113.015 87.5214 111.766 86.3261 110.889C85.3679 110.177 84.231 109.746 83.042 109.643C81.853 109.54 80.6589 109.77 79.5927 110.306C78.5266 110.842 77.6304 111.664 77.0042 112.68C76.378 113.696 76.0464 114.866 76.0464 116.059C76.0464 117.253 76.378 118.423 77.0042 119.439C77.6304 120.454 78.5266 121.276 79.5927 121.813C80.6589 122.349 81.853 122.578 83.042 122.475C84.231 122.373 85.3679 121.941 86.3261 121.23C87.5194 120.351 88.3893 119.102 88.8009 117.679C89.0862 116.657 89.077 116.059 89.1414 116.059C89.2058 116.059 89.1414 116.206 89.1414 116.492C89.1559 116.913 89.1126 117.334 89.0126 117.743C88.6823 119.279 87.8225 120.65 86.5837 121.616C85.658 122.343 84.5635 122.824 83.402 123.013C82.2406 123.203 81.05 123.096 79.9411 122.702C78.5683 122.215 77.3799 121.315 76.5395 120.126C75.6991 118.936 75.2478 117.516 75.2478 116.059C75.2478 114.603 75.6991 113.182 76.5395 111.993C77.3799 110.803 78.5683 109.903 79.9411 109.417C81.0496 109.024 82.2392 108.916 83.4002 109.105C84.5611 109.293 85.656 109.77 86.5837 110.493C87.822 111.464 88.6813 112.837 89.0126 114.376C89.1126 114.785 89.1559 115.206 89.1414 115.627C89.1874 115.894 89.169 116.059 89.1414 116.059Z" fill="#F6EDFF"/>
<path d="M320.096 139.189L331.633 137.349C339.195 143.45 348.765 146.502 358.463 145.904C368.161 145.307 377.285 141.104 384.041 134.12C390.796 127.137 394.696 117.88 394.972 108.167C395.248 98.4549 391.881 88.9905 385.533 81.6347C379.185 74.2789 370.315 69.5637 360.667 68.4162C351.018 67.2687 341.29 69.7718 333.394 75.4335C325.497 81.0951 320.004 89.5058 317.995 99.0119C315.985 108.518 317.604 118.432 322.534 126.805L320.096 139.189Z" fill="#CAC5CD"/>
<path d="M320.096 139.189C320.096 139.189 320.096 138.931 320.225 138.407L320.666 136.051C321.062 133.935 321.651 130.835 322.414 126.787C322.416 126.774 322.421 126.761 322.428 126.75C322.436 126.739 322.446 126.729 322.457 126.722C322.468 126.715 322.481 126.711 322.494 126.709C322.508 126.708 322.521 126.709 322.534 126.713C322.542 126.708 322.552 126.706 322.561 126.706C322.571 126.706 322.581 126.708 322.589 126.713L322.423 126.842C319.131 121.284 317.269 114.997 317.004 108.543C316.923 106.534 317 104.522 317.234 102.526C317.508 100.389 317.945 98.2755 318.541 96.2051C320.714 88.699 325.091 82.0184 331.104 77.0284C337.118 72.0385 344.491 68.9691 352.269 68.2179C358.372 67.6419 364.524 68.514 370.227 70.7633C375.929 73.0126 381.02 76.5756 385.086 81.1626L386.65 83.0027C387.138 83.6467 387.571 84.3183 388.049 84.9623C388.957 86.2716 389.784 87.6359 390.524 89.0473C390.929 89.7281 391.186 90.4825 391.527 91.1909C391.867 91.8993 392.217 92.6078 392.447 93.3622C392.992 94.8224 393.444 96.3159 393.799 97.8335C395.214 103.731 395.262 109.874 393.937 115.792C392.163 123.489 388.095 130.465 382.272 135.801C376.449 141.136 369.144 144.579 361.322 145.675C359.173 145.967 357.004 146.093 354.836 146.052C352.822 145.957 350.816 145.742 348.828 145.408C342.498 144.229 336.564 141.484 331.568 137.422H331.651L323.021 138.72L320.823 139.042L320.096 139.143L320.859 139.005L323.077 138.637L331.614 137.22H331.697C336.688 141.215 342.594 143.905 348.883 145.049C350.856 145.378 352.847 145.584 354.845 145.666C356.999 145.7 359.152 145.568 361.285 145.27C369.013 144.152 376.222 140.725 381.968 135.439C387.715 130.152 391.729 123.253 393.486 115.645C394.786 109.795 394.733 103.725 393.33 97.8979C392.969 96.4017 392.524 94.9273 391.996 93.4818C391.766 92.7366 391.379 92.0557 391.076 91.3381C390.772 90.6205 390.478 89.8937 390.082 89.2221C389.354 87.8278 388.536 86.4818 387.635 85.1924C387.175 84.5483 386.715 83.8859 386.255 83.2511L384.709 81.411C380.692 76.8798 375.665 73.3583 370.034 71.1317C364.403 68.9051 358.326 68.0361 352.297 68.5951C346.959 69.1225 341.789 70.7512 337.112 73.3784C332.436 76.0055 328.355 79.574 325.128 83.8583C322.316 87.6063 320.215 91.8377 318.927 96.3431C318.333 98.3926 317.893 100.484 317.612 102.599C317.368 104.58 317.282 106.576 317.354 108.57C317.579 114.979 319.384 121.234 322.607 126.778C322.625 126.796 322.635 126.821 322.635 126.847C322.635 126.872 322.625 126.897 322.607 126.916C322.589 126.931 322.567 126.939 322.543 126.939C322.519 126.939 322.497 126.931 322.479 126.916L322.644 126.86C321.835 130.862 321.209 133.935 320.804 136.061C320.593 137.1 320.427 137.901 320.317 138.434C320.206 138.968 320.096 139.189 320.096 139.189Z" fill="#263238"/>
<path d="M367.836 108.221C367.834 107.439 368.064 106.675 368.497 106.024C368.93 105.374 369.547 104.867 370.268 104.567C370.99 104.267 371.784 104.188 372.551 104.34C373.317 104.492 374.021 104.868 374.574 105.421C375.126 105.973 375.502 106.677 375.654 107.444C375.806 108.21 375.727 109.004 375.428 109.726C375.128 110.448 374.62 111.064 373.97 111.497C373.319 111.93 372.555 112.16 371.774 112.158C370.73 112.156 369.73 111.74 368.992 111.002C368.254 110.264 367.838 109.264 367.836 108.221Z" fill="#263238"/>
<path d="M352.048 108.221C352.047 107.44 352.276 106.676 352.709 106.025C353.142 105.375 353.757 104.868 354.478 104.568C355.2 104.267 355.993 104.188 356.76 104.339C357.526 104.49 358.23 104.866 358.783 105.417C359.336 105.969 359.713 106.672 359.866 107.438C360.019 108.204 359.941 108.998 359.643 109.72C359.344 110.441 358.838 111.058 358.189 111.493C357.54 111.927 356.776 112.158 355.995 112.158C354.95 112.158 353.948 111.744 353.208 111.006C352.468 110.267 352.051 109.266 352.048 108.221Z" fill="#263238"/>
<path d="M336.307 110.189C335.916 109.513 335.735 108.737 335.786 107.958C335.837 107.179 336.118 106.433 336.593 105.813C337.068 105.194 337.716 104.729 338.456 104.478C339.195 104.227 339.992 104.201 340.746 104.403C341.5 104.605 342.177 105.026 342.692 105.613C343.207 106.2 343.536 106.927 343.638 107.701C343.74 108.475 343.61 109.261 343.264 109.961C342.919 110.662 342.374 111.244 341.698 111.634C340.791 112.155 339.714 112.295 338.704 112.025C337.694 111.754 336.832 111.094 336.307 110.189Z" fill="#263238"/>
<path d="M60.6668 249.463C58.2471 248.313 54.1714 245.912 51.6505 244.973C49.1587 243.907 46.3786 243.719 43.7659 244.44C42.2846 244.937 40.8034 246.123 40.7942 247.687L50.6845 254.983L60.6668 252.352V249.463Z" fill="#FF9A6C"/>
<path d="M49.8472 249.362C49.8472 249.362 32.0815 245.507 29.119 243.989C26.1565 242.471 10.7184 234.743 8.13316 234.743C5.54788 234.743 3.33982 235.442 2.87061 238.018L6.2471 240.64L6.67952 241.983L12.4573 244.992L13.4785 246.887L28.1989 254.744C28.1989 254.744 43.637 262.583 46.2131 263.024C48.7891 263.466 61.6511 264.542 67.1529 269.225L89.2335 260.154C89.2335 260.154 82.8577 251.101 77.9448 248.865C73.5655 246.878 66.2145 246.878 61.0715 248.985L49.8472 249.362Z" fill="#FFBF9D"/>
<path d="M64.6228 264.184C64.6228 264.184 92.7296 325.476 97.2562 337.786C97.2562 337.786 128.675 332.615 129.752 315.181L89.2703 259.979L64.6228 264.184Z" fill="#FFBF9D"/>
<path d="M38.5217 250.751C38.5217 250.751 38.4113 250.751 38.2181 250.751C37.9307 250.722 37.647 250.664 37.3717 250.576C36.3641 250.27 35.3852 249.876 34.446 249.399C33.25 248.819 31.8607 248.056 30.3335 247.2C29.5699 246.777 28.7695 246.326 27.9322 245.893C27.095 245.461 26.1842 245.084 25.2549 244.679C23.5344 243.9 21.7566 243.254 19.9372 242.747C18.2719 242.333 16.6711 242.02 15.4659 242.425C14.9984 242.612 14.5743 242.893 14.2198 243.251C13.8653 243.608 13.588 244.035 13.405 244.504C13.2691 244.863 13.1124 245.213 12.9358 245.553C12.9358 245.553 12.9358 245.443 12.9818 245.259C13.0433 244.977 13.1263 244.7 13.2302 244.431C13.3928 244.001 13.6125 243.596 13.8834 243.225C14.2415 242.719 14.7406 242.328 15.3187 242.103C16.0318 241.864 16.7896 241.789 17.5359 241.882C18.3705 241.965 19.1977 242.109 20.0108 242.315C21.869 242.804 23.6844 243.444 25.439 244.228C26.359 244.633 27.279 245.01 28.1346 245.461C28.9903 245.912 29.7815 246.381 30.5451 246.813C32.0631 247.687 33.4248 248.479 34.5932 249.086C35.4986 249.58 36.436 250.014 37.3993 250.383C38.1169 250.65 38.5217 250.705 38.5217 250.751Z" fill="#FF9A6C"/>
<path d="M21.5747 241.937C20.7086 241.762 19.8699 241.471 19.0815 241.072C17.1839 240.177 15.2328 239.4 13.2393 238.745C12.1485 238.436 11.0085 238.339 9.88119 238.46C9.43138 238.473 8.98903 238.578 8.58099 238.768C8.17295 238.958 7.80774 239.228 7.50752 239.564C7.1477 240.062 6.91123 240.639 6.8175 241.247C6.80916 241.483 6.76255 241.716 6.67949 241.937C6.63646 241.703 6.63646 241.463 6.67949 241.229C6.7139 240.572 6.92357 239.937 7.28671 239.389C7.56833 239.005 7.93322 238.691 8.35394 238.469C8.83515 238.24 9.35145 238.094 9.88119 238.036C11.0678 237.887 12.2724 237.978 13.4233 238.303C15.4451 238.952 17.4037 239.783 19.2747 240.787C20.0614 241.129 20.8292 241.513 21.5747 241.937Z" fill="#FF9A6C"/>
<path d="M65.92 247.623C65.92 247.623 65.6716 247.77 65.2024 247.936C64.5295 248.179 63.8448 248.388 63.1507 248.561C60.8667 249.156 58.5258 249.504 56.1677 249.601C53.8103 249.703 51.4486 249.561 49.1203 249.178C48.2003 249.021 47.5195 248.865 47.0318 248.727C46.771 248.688 46.5189 248.604 46.2866 248.479C46.2866 248.405 47.3907 248.617 49.1755 248.837C51.4884 249.124 53.8208 249.219 56.1493 249.123C58.4795 249.003 60.7963 248.695 63.0771 248.203C64.7792 247.871 65.8556 247.559 65.92 247.623Z" fill="#FF9A6C"/>
<path d="M327.613 211.236L286.727 202.772L276.606 195.182L222.601 205.596C221.736 207.179 212.986 219.397 212.986 219.397L191.715 226.619C182.675 228.994 174.606 234.142 168.641 241.339C162.97 248.344 158.323 256.119 154.841 264.432C145.272 286.89 131.463 312.835 131.463 312.835L122.805 298.887L86.3171 316.073C86.3171 316.073 107.689 359.158 114.764 365.313C122.631 372.149 140.718 372.94 153.221 360.188C160.757 352.497 182.534 322.099 187.069 314.491L193.804 346.305L199.996 382.619L189.986 407.616H336.086L330.041 383.989C330.041 383.989 335.994 322.412 337.641 310.948C341.514 283.909 327.613 211.236 327.613 211.236Z" fill="#7E57C2"/>
<path d="M327.612 211.236C327.612 211.236 356.869 219.443 363.309 248.525C367.21 266.143 380.459 316.367 385.123 357.713C387.883 382.297 387.81 405.012 387.883 407.616H342.986L323.96 219.443L327.612 211.236Z" fill="#7E57C2"/>
<path d="M252.575 236.206C252.575 236.206 252.575 236.316 252.455 236.509L252.041 237.356C251.673 238.101 251.121 239.196 250.523 240.585C249.226 243.345 247.699 247.439 245.233 252.012L245.114 252.242L244.911 252.067C241.875 249.482 238.581 246.372 235.177 243.014C229.151 237.034 223.87 231.467 219.969 227.52L215.323 222.856L214.044 221.596C213.889 221.456 213.747 221.302 213.621 221.135C213.799 221.248 213.962 221.38 214.109 221.531L215.434 222.727C216.574 223.776 218.194 225.331 220.19 227.281C224.155 231.173 229.482 236.702 235.49 242.673C238.894 246.031 242.17 249.114 245.169 251.745L244.838 251.8C247.322 247.292 248.904 243.216 250.266 240.474C250.937 239.085 251.499 238.018 251.903 237.291C252.087 236.969 252.244 236.693 252.373 236.482C252.43 236.383 252.498 236.29 252.575 236.206Z" fill="#1D192B"/>
<path d="M287.297 203.811C287.294 204.029 287.266 204.245 287.214 204.455C287.122 204.915 287.012 205.523 286.874 206.295C286.542 207.878 285.954 210.16 285.199 212.938C283.608 218.458 281.031 226.085 277.839 234.319C276.155 238.68 274.499 242.802 272.954 246.455L272.834 246.74L272.604 246.537C268.436 242.857 264.701 239.959 262.171 237.806C260.901 236.73 259.908 235.865 259.236 235.258L258.491 234.559C258.316 234.393 258.233 234.31 258.242 234.301C258.348 234.356 258.447 234.424 258.537 234.503L259.328 235.157L262.336 237.604C264.922 239.702 268.685 242.545 272.898 246.206L272.549 246.289C274.067 242.609 275.714 238.506 277.388 234.154C280.544 225.874 283.166 218.375 284.831 212.846C285.659 210.086 286.266 207.823 286.671 206.249C286.846 205.504 286.993 204.906 287.104 204.409C287.153 204.206 287.218 204.006 287.297 203.811Z" fill="#1D192B"/>
<path d="M192.654 342.229C192.615 342.167 192.587 342.099 192.571 342.027L192.378 341.401C192.212 340.788 191.982 339.978 191.688 338.973C191.375 337.924 191.071 336.626 190.703 335.118C190.335 333.609 189.94 331.879 189.544 329.965C187.509 319.983 186.077 309.888 185.257 299.733C184.217 287.837 183.987 277.027 184.042 269.216C184.042 265.306 184.143 262.141 184.254 259.961C184.309 258.893 184.346 258.056 184.373 257.44C184.373 257.182 184.373 256.961 184.419 256.787C184.41 256.713 184.41 256.639 184.419 256.566C184.427 256.642 184.427 256.719 184.419 256.796V257.449C184.419 258.065 184.419 258.903 184.419 259.961C184.419 262.15 184.346 265.306 184.364 269.216C184.364 277.018 184.677 287.819 185.717 299.687C186.544 309.827 187.926 319.913 189.857 329.901C190.234 331.815 190.584 333.581 190.942 335.053C191.301 336.525 191.568 337.878 191.862 338.927L192.47 341.374L192.608 342.009C192.654 342.156 192.663 342.229 192.654 342.229Z" fill="#1D192B"/>
<path d="M330.041 243.492C330.096 243.572 330.139 243.658 330.17 243.75C330.253 243.943 330.363 244.191 330.492 244.504C330.787 245.203 331.182 246.188 331.697 247.43C331.955 248.074 332.259 248.773 332.553 249.555L333.427 252.131C333.74 253.051 334.071 254.054 334.43 255.103C334.789 256.152 335.028 257.302 335.35 258.489C338.11 267.956 339.49 281.655 338.699 296.642C337.907 311.629 336.141 325.163 335.019 334.878C334.457 339.736 333.997 343.683 333.675 346.443C333.519 347.777 333.39 348.835 333.298 349.58L333.188 350.399C333.181 350.493 333.163 350.586 333.133 350.675C333.12 350.584 333.12 350.491 333.133 350.399L333.197 349.571C333.271 348.817 333.372 347.731 333.491 346.425C333.749 343.665 334.154 339.727 334.678 334.842C335.681 325.071 337.374 311.583 338.184 296.624C338.993 281.664 337.631 268.038 334.991 258.571L334.071 255.186L333.151 252.223C332.857 251.303 332.581 250.429 332.323 249.638C332.065 248.847 331.753 248.138 331.504 247.494C331.026 246.234 330.658 245.249 330.382 244.541C330.271 244.219 330.179 243.971 330.106 243.768C330.07 243.68 330.048 243.587 330.041 243.492Z" fill="#1D192B"/>
<path d="M131.702 344.161C131.573 344.161 131.417 337.151 131.361 328.521C131.306 319.891 131.361 312.881 131.499 312.881C131.637 312.881 131.785 319.891 131.84 328.521C131.895 337.151 131.84 344.161 131.702 344.161Z" fill="#1D192B"/>
<path d="M264.462 386.621V386.234C264.462 385.958 264.535 385.59 264.59 385.112C264.719 384.1 264.894 382.655 265.124 380.797C265.244 379.877 265.372 378.819 265.52 377.687C265.667 376.556 265.777 375.304 265.915 374.007C266.182 371.339 266.55 368.312 266.835 364.945C266.973 363.27 267.111 361.504 267.268 359.673C267.424 357.842 267.498 355.929 267.617 353.951C267.893 349.994 268.013 345.753 268.169 341.3C268.372 332.385 268.344 322.578 267.884 312.301C267.424 302.024 266.486 292.254 265.446 283.394C264.866 278.968 264.36 274.764 263.707 270.854C263.404 268.894 263.137 266.999 262.787 265.186C262.438 263.374 262.152 261.635 261.867 259.97C261.306 256.649 260.662 253.668 260.138 251.036C259.871 249.721 259.632 248.497 259.402 247.356C259.171 246.215 258.923 245.213 258.711 244.293L257.791 240.051C257.699 239.582 257.617 239.214 257.561 238.947C257.506 238.68 257.497 238.561 257.497 238.561C257.544 238.68 257.581 238.803 257.607 238.929L257.893 240.024L258.914 244.256L259.641 247.31C259.88 248.433 260.138 249.647 260.423 250.99C260.966 253.612 261.637 256.593 262.217 259.915C262.523 261.577 262.83 263.316 263.137 265.131C263.468 266.971 263.735 268.811 264.057 270.799C264.719 274.718 265.244 278.922 265.842 283.348C266.9 292.217 267.801 301.997 268.317 312.283C268.832 322.568 268.795 332.394 268.565 341.319C268.39 345.781 268.261 350.022 267.967 353.978C267.838 355.956 267.746 357.87 267.59 359.71C267.433 361.55 267.268 363.307 267.121 364.991C266.863 368.358 266.467 371.431 266.201 374.044C266.044 375.378 265.897 376.62 265.768 377.724C265.639 378.828 265.464 379.895 265.326 380.834C265.06 382.674 264.848 384.127 264.71 385.13L264.535 386.253C264.521 386.377 264.497 386.5 264.462 386.621Z" fill="#1D192B"/>
<path d="M283.911 287.313H284.095L284.675 287.249L286.929 286.991L295.549 286.071L326.232 282.888H326.462V283.118C326.692 292.401 326.968 302.907 327.254 314.049V314.15L327.189 314.215L323.509 318.198L310.095 332.532L309.975 332.661L309.819 332.578L287.214 321.354L287.113 321.308V321.225C286.128 310.967 285.273 302.484 284.748 296.532C284.472 293.606 284.261 291.306 284.114 289.714C284.049 288.951 283.994 288.362 283.957 287.929C283.92 287.497 283.957 287.341 283.957 287.341C283.957 287.341 283.957 287.561 284.04 287.966C284.123 288.371 284.16 289.006 284.252 289.806C284.417 291.416 284.666 293.726 284.988 296.67C285.604 302.576 286.478 311.013 287.545 321.216L287.435 321.06L310.067 332.22L309.801 332.266L323.187 317.876L326.867 313.902L326.803 314.067C326.536 302.926 326.278 292.428 326.058 283.136L326.297 283.339L295.706 286.264L287.03 287.074L284.721 287.276L284.123 287.331L283.911 287.313Z" fill="#1D192B"/>
<path d="M326.518 293.79C325.996 293.935 325.464 294.036 324.926 294.094C323.896 294.259 322.405 294.471 320.556 294.71C316.876 295.179 311.733 295.722 306.075 296.265L291.575 297.682L287.186 298.142C286.654 298.227 286.116 298.267 285.576 298.261C286.098 298.117 286.63 298.015 287.168 297.958C288.199 297.792 289.689 297.581 291.538 297.341C295.218 296.872 300.361 296.329 306.029 295.786L320.519 294.37L324.908 293.91C325.44 293.824 325.978 293.784 326.518 293.79Z" fill="#1D192B"/>
<g opacity="0.3">
<path d="M335.405 329.975L336.951 348.771C340.364 332.67 345.728 315.365 344.891 298.933C344.053 282.501 342.508 266.778 333.252 251.901C337.276 263.102 339.122 274.969 338.69 286.862C337.843 306.091 335.405 329.975 335.405 329.975Z" fill="#1D192B"/>
</g>
<path d="M125.611 294.986C125.114 293.854 124.235 292.932 123.127 292.382C121.839 291.941 120.441 292.566 119.217 293.174L85.8387 309.789C83.6399 310.884 81.2386 312.181 80.429 314.481C79.3709 317.426 81.349 320.535 83.189 323.065C86.2619 327.288 89.942 331.888 95.1494 332.486L123.863 312.798C127.369 312.283 129.549 308.372 129.384 304.83C129.218 301.288 127.396 298.059 125.611 294.986Z" fill="#7E57C2"/>
<path d="M129.236 307.02C129.151 307.139 129.052 307.247 128.942 307.342L128.022 308.198C127.231 308.934 126.062 309.973 124.599 311.225C121.664 313.736 117.497 317.076 112.639 320.48C107.781 323.884 103.337 326.69 99.9609 328.585C98.2865 329.551 96.9156 330.306 95.9588 330.803L94.8548 331.364C94.5972 331.493 94.4592 331.548 94.45 331.529C94.5563 331.429 94.6773 331.345 94.8088 331.281L95.8668 330.637L99.7861 328.291C103.089 326.304 107.588 323.452 112.39 320.057C117.193 316.662 121.388 313.377 124.351 310.939L127.875 308.023L128.795 307.241C129.107 307.094 129.227 307.002 129.236 307.02Z" fill="#1D192B"/>
<g opacity="0.3">
<path d="M286.865 205.918C282.936 218.964 277.434 233.721 272.788 246.399C268.832 243.041 263.293 238.598 259.328 235.23C262.741 242.001 266.838 248.404 271.555 254.339C272.107 255.029 272.843 255.784 273.699 255.618C274.555 255.452 274.941 254.569 275.235 253.778L282.476 234.614C285.862 225.653 289.128 215.201 286.865 205.918Z" fill="#1D192B"/>
</g>
<path d="M224.763 63.9857C236.723 60.5448 247.91 63.9857 258.942 69.7083C269.973 75.4309 278.869 84.8795 284.629 95.8739C290.701 107.457 293.387 120.954 291.189 133.843C288.99 146.733 281.703 158.877 270.792 166.044C255.878 175.87 235.324 175.355 219.969 166.256C204.614 157.157 194.503 140.385 191.826 122.729C189.986 110.567 191.476 97.7415 197.153 86.8484C202.829 75.9553 212.867 67.123 224.753 63.9765" fill="#1D1B20"/>
<path d="M264.029 101.422C261.72 96.9779 261.821 91.7061 260.561 86.8484C257.801 76.1669 248.048 68.4478 237.45 65.3658C227.596 62.4861 216.197 64.6481 205.249 69.5979C197.76 72.9928 190.942 78.2001 186.471 85.1003C183.547 89.7254 181.77 94.9826 181.29 100.434C180.81 105.885 181.64 111.371 183.711 116.436L238.351 102.066C244.037 105.746 249.861 109.545 256.439 111.266C258.353 111.858 260.386 111.95 262.346 111.533C263.318 111.303 264.204 110.798 264.897 110.079C265.59 109.359 266.062 108.456 266.256 107.475C266.486 105.286 265.032 103.363 264.029 101.422Z" fill="#1D1B20"/>
<path d="M277.066 198.31L262.962 99.1124C262.336 94.4202 260.202 89.6361 255.482 89.8569L205.801 85.0728C190.234 85.7904 182.929 106.233 184.309 121.717C185.845 138.959 188.394 159.945 192.359 172.383C200.336 197.38 220.475 197.638 220.475 197.638C220.475 197.638 221.699 202.606 223.235 211.898L255.436 233.317L277.066 198.31Z" fill="#FFBF9D"/>
<path d="M196.316 140.587C196.439 141.445 196.893 142.221 197.581 142.748C198.268 143.276 199.135 143.514 199.996 143.412C200.419 143.382 200.832 143.267 201.21 143.075C201.588 142.883 201.924 142.617 202.197 142.293C202.471 141.968 202.677 141.593 202.803 141.187C202.929 140.782 202.972 140.356 202.93 139.934C202.805 139.076 202.35 138.301 201.664 137.773C200.977 137.244 200.112 137.003 199.25 137.1C198.827 137.133 198.415 137.249 198.037 137.442C197.66 137.636 197.324 137.903 197.051 138.228C196.778 138.552 196.572 138.928 196.446 139.333C196.319 139.738 196.275 140.165 196.316 140.587Z" fill="#1D1B20"/>
<path d="M190.519 131.893C190.989 132.261 193.197 130.053 196.739 129.51C200.281 128.967 203.133 130.356 203.455 129.86C203.611 129.639 203.078 128.94 201.826 128.277C200.133 127.456 198.229 127.173 196.371 127.468C194.53 127.741 192.825 128.595 191.504 129.906C190.538 130.899 190.289 131.7 190.519 131.893Z" fill="#1D1B20"/>
<path d="M229.004 135.269C229.125 136.129 229.578 136.907 230.266 137.437C230.954 137.966 231.822 138.205 232.684 138.103C233.107 138.073 233.52 137.959 233.898 137.767C234.276 137.574 234.612 137.308 234.886 136.984C235.16 136.66 235.365 136.284 235.491 135.879C235.617 135.474 235.661 135.048 235.619 134.625C235.498 133.766 235.044 132.988 234.357 132.458C233.669 131.929 232.801 131.689 231.939 131.792C231.516 131.823 231.104 131.938 230.726 132.131C230.349 132.323 230.013 132.589 229.74 132.913C229.467 133.237 229.261 133.613 229.134 134.017C229.008 134.422 228.964 134.847 229.004 135.269Z" fill="#1D1B20"/>
<path d="M224.165 127.21C224.634 127.578 226.851 125.37 230.384 124.827C233.917 124.284 236.778 125.674 237.1 125.177C237.257 124.956 236.723 124.257 235.472 123.594C233.776 122.771 231.868 122.488 230.007 122.785C228.143 123.059 226.417 123.927 225.085 125.26C224.165 126.18 223.916 127.1 224.165 127.21Z" fill="#1D1B20"/>
<path d="M216.547 155.427C216.547 155.225 214.274 155.179 210.649 155.271C209.729 155.271 208.809 155.271 208.598 154.673C208.386 154.075 208.515 153.026 208.791 151.913C209.306 149.6 209.849 147.175 210.419 144.635C212.627 134.276 214.099 125.821 213.667 125.738C213.235 125.655 211.119 134.018 208.901 144.322C208.377 146.871 207.871 149.309 207.402 151.637C207.218 152.713 206.804 153.964 207.475 155.243C207.652 155.544 207.896 155.799 208.188 155.989C208.48 156.179 208.813 156.299 209.159 156.338C209.678 156.408 210.204 156.408 210.723 156.338C214.339 155.952 216.565 155.62 216.547 155.427Z" fill="#1D1B20"/>
<path d="M220.485 197.638C232.581 195.975 243.978 190.984 253.403 183.221C253.403 183.221 245.371 203.324 222.122 205.348L220.485 197.638Z" fill="#FF9A6C"/>
<path d="M219.344 163.726C219.886 162.777 220.662 161.981 221.597 161.415C222.532 160.848 223.596 160.529 224.689 160.487C225.483 160.442 226.278 160.557 227.026 160.828C227.774 161.098 228.46 161.518 229.041 162.061C229.603 162.579 229.993 163.257 230.158 164.004C230.322 164.751 230.254 165.531 229.961 166.237C229.216 167.719 227.265 168.335 225.508 168.078C223.747 167.742 222.071 167.061 220.577 166.072C220.131 165.844 219.734 165.531 219.408 165.152C219.248 164.977 219.143 164.759 219.107 164.525C219.071 164.291 219.105 164.051 219.206 163.836" fill="#FF9A6C"/>
<path d="M227.33 156.283C226.741 156.338 227.33 160.184 224.45 163.404C221.57 166.624 217.439 166.836 217.485 167.369C217.485 167.627 218.516 167.976 220.245 167.765C222.5 167.452 224.572 166.354 226.097 164.664C227.56 163.045 228.335 160.92 228.259 158.739C228.158 157.111 227.587 156.228 227.33 156.283Z" fill="#1D1B20"/>
<path d="M223.153 116.648C223.649 117.568 227.109 116.565 231.332 116.427C235.555 116.289 239.088 116.915 239.502 115.967C239.686 115.516 238.968 114.707 237.468 113.98C235.489 113.116 233.338 112.713 231.18 112.802C229.022 112.891 226.913 113.47 225.011 114.495C223.585 115.342 222.932 116.216 223.153 116.648Z" fill="#1D1B20"/>
<path d="M189.204 116.28C189.949 116.988 192.258 115.783 195.184 115.296C198.109 114.808 200.704 115.01 201.109 114.081C201.302 113.63 200.787 112.894 199.591 112.296C197.996 111.61 196.233 111.411 194.525 111.725C192.817 112.04 191.241 112.853 189.995 114.063C189.066 115.047 188.854 115.93 189.204 116.28Z" fill="#1D1B20"/>
<path d="M272.07 92.9298C265.373 78.7246 241.139 61.0876 225.756 64.2433L202.949 82.4231C204.318 86.5483 206.777 90.2271 210.064 93.0708C213.351 95.9145 217.346 97.8174 221.625 98.5787C226.179 99.3332 231.516 98.9927 234.625 102.415C237.735 105.838 236.99 111.726 239.998 115.36C244.166 120.402 253.513 118.893 256.881 124.505C258.362 126.952 258.187 130.136 259.696 132.565C261.72 135.794 271.003 139.005 274.416 137.367C277.83 135.729 277.057 129.62 277.802 126.244C279.081 120.494 277.866 117.761 276.799 114.78C274.306 107.715 275.272 99.7012 272.07 92.9298Z" fill="#1D1B20"/>
<path d="M264.232 141.82C263.947 139.906 265.465 135.076 267.305 134.46C272.218 132.914 281.354 131.93 283.387 144.7C286.147 162.18 268.078 161.343 267.958 160.846C267.838 160.349 265.225 148.389 264.232 141.82Z" fill="#FFBF9D"/>
<path d="M272.236 153.394C272.31 153.32 272.576 153.56 273.156 153.707C273.928 153.906 274.748 153.794 275.438 153.394C277.167 152.428 278.253 149.254 277.839 146.089C277.644 144.587 277.116 143.147 276.293 141.875C276.044 141.355 275.671 140.904 275.208 140.561C274.745 140.218 274.204 139.993 273.634 139.906C273.27 139.869 272.905 139.961 272.602 140.166C272.299 140.371 272.078 140.677 271.978 141.029C271.822 141.553 271.978 141.884 271.896 141.949C271.813 142.013 271.482 141.719 271.5 140.974C271.53 140.528 271.712 140.106 272.015 139.778C272.436 139.335 273.015 139.077 273.625 139.06C274.987 138.94 276.385 139.98 277.232 141.259C278.217 142.654 278.849 144.267 279.072 145.96C279.523 149.493 278.244 153.072 275.833 154.24C275.388 154.452 274.901 154.562 274.407 154.562C273.914 154.562 273.427 154.452 272.981 154.24C272.337 153.78 272.181 153.431 272.236 153.394Z" fill="#FF9A6C"/>
<path d="M207.439 76.5441C206.638 83.9043 196.821 94.2546 192.718 100.354C184.833 111.993 183.435 115.719 186.214 139.419C180.988 131.718 176.792 124.063 176.093 114.78C175.394 105.497 177.731 95.8646 183.398 88.486C189.066 81.1074 198.183 76.2497 207.485 76.5257" fill="#1D1B20"/>
<path d="M249.125 51.5838C252.805 47.5264 258.123 44.886 263.643 43.5059C271.509 41.5371 280.148 42.0707 287.306 45.4932C294.464 48.9157 300.003 55.3375 301.447 62.6977C302.157 66.4786 301.823 70.3815 300.481 73.9867C299.139 77.592 296.839 80.7631 293.829 83.1591C297.922 87.1272 302.912 90.0496 308.375 91.6785C306.884 93.9142 304.133 95.2206 301.355 95.6898C298.562 96.0391 295.735 96.0205 292.946 95.6346C294.85 98.4789 297.698 100.558 300.987 101.504C296.459 102.55 291.737 102.394 287.288 101.054C282.936 99.7346 278.772 97.864 274.895 95.4874C261.435 87.6764 254.01 80.8314 244.921 68.8067C243.734 63.6177 245.417 55.6503 249.125 51.5838Z" fill="#1D1B20"/>
<path d="M278.143 88.4584C268.261 74.0232 255.685 66.3042 244.304 63.9029L278.143 88.4584Z" fill="#1D1B20"/>
<path d="M244.304 63.9029C244.826 64.1117 245.364 64.2749 245.914 64.3905C246.954 64.6849 248.453 65.1358 250.257 65.8258C254.951 67.6496 259.365 70.1275 263.367 73.186C267.369 76.2371 271.017 79.7274 274.242 83.5915C275.456 85.0911 276.44 86.3516 277.075 87.1796C277.391 87.6489 277.749 88.0892 278.143 88.4952C277.876 87.992 277.569 87.5119 277.223 87.06C276.634 86.14 275.695 84.8979 274.508 83.3799C271.365 79.3998 267.743 75.8216 263.726 72.726C259.676 69.6367 255.177 67.1856 250.385 65.4578C248.94 64.9436 247.465 64.5165 245.969 64.1789C245.422 64.0426 244.866 63.9503 244.304 63.9029Z" fill="#455A64"/>
<path d="M289.919 100.759L289.698 100.833L289.054 101.09C288.502 101.33 287.674 101.642 286.588 102.01C283.52 103.038 280.338 103.687 277.112 103.942C272.33 104.298 267.521 103.989 262.824 103.022C257.071 101.814 251.446 100.061 246.024 97.7875C240.228 95.423 234.763 92.9942 229.896 90.6113C225.573 88.5197 221.413 86.1087 217.448 83.3983C214.783 81.5627 212.267 79.52 209.923 77.2893C209.076 76.5073 208.469 75.8541 208.082 75.4493L207.595 74.9616C207.484 74.8604 207.429 74.8052 207.42 74.8144C207.411 74.8236 207.42 74.8788 207.558 74.9984L208.009 75.5229C208.404 75.9829 208.993 76.6545 209.849 77.4641C212.154 79.7599 214.65 81.8559 217.31 83.7295C221.261 86.5047 225.423 88.9656 229.758 91.0897C234.634 93.5094 240.09 95.9567 245.896 98.3303C251.351 100.61 257.014 102.357 262.806 103.547C267.549 104.494 272.404 104.76 277.222 104.338C280.444 104.044 283.615 103.345 286.662 102.259C287.738 101.845 288.557 101.504 289.1 101.228L289.716 100.925C289.854 100.805 289.928 100.768 289.919 100.759Z" fill="#455A64"/>
<path d="M237.79 187.398L236.125 184.141C236.245 184.077 247.8 178.152 252.244 174.417C262.714 165.621 272.337 151.572 272.438 151.416L275.475 153.486C275.07 154.084 265.474 168.096 254.608 177.223C249.824 181.216 238.278 187.15 237.79 187.398Z" fill="#455A64"/>
<path d="M246.392 177.232C246.392 177.232 230.605 184.279 230.605 185.843C230.605 187.407 233.107 190.535 234.984 190.379C236.861 190.223 242.289 187.168 243.264 185.917C244.24 184.666 245.969 181.446 247.864 179.881L246.392 177.232Z" fill="#1D1B20"/>
<path d="M275.346 129.86L271.666 129.685C271.799 119.073 269.971 108.527 266.274 98.5787C258.288 78.0069 242.933 66.9666 220.65 65.7522C218.623 65.6633 216.593 65.8022 214.596 66.1662L216.206 64.639C216.987 63.9025 217.894 63.3134 218.884 62.9001C220.241 62.3329 221.716 62.1055 223.18 62.2377C251.315 64.6758 264.029 82.5611 269.743 97.3551C273.635 107.742 275.536 118.769 275.346 129.86Z" fill="#455A64"/>
<path d="M273.506 163.321C279.943 163.321 285.162 155.816 285.162 146.558C285.162 137.3 279.943 129.795 273.506 129.795C267.068 129.795 261.849 137.3 261.849 146.558C261.849 155.816 267.068 163.321 273.506 163.321Z" fill="#455A64"/>
<path d="M285.162 146.558C285.151 146.482 285.151 146.404 285.162 146.328C285.162 146.144 285.162 145.923 285.107 145.647C285.066 144.778 284.977 143.912 284.84 143.053C284.365 139.883 283.131 136.875 281.243 134.285C280.607 133.448 279.872 132.691 279.053 132.031C278.162 131.329 277.157 130.784 276.082 130.421C274.931 130.048 273.712 129.932 272.512 130.08C271.242 130.271 270.026 130.726 268.942 131.414C266.646 133.012 264.873 135.253 263.845 137.855C262.696 140.625 262.105 143.595 262.105 146.595C262.105 149.594 262.696 152.564 263.845 155.335C264.872 157.938 266.645 160.179 268.942 161.775C270.026 162.464 271.242 162.919 272.512 163.109C273.713 163.254 274.93 163.138 276.082 162.769C277.157 162.406 278.162 161.861 279.053 161.159C279.87 160.497 280.605 159.74 281.243 158.905C283.131 156.315 284.365 153.307 284.84 150.137C284.976 149.278 285.065 148.412 285.107 147.543C285.107 147.267 285.107 147.046 285.162 146.862C285.15 146.786 285.15 146.708 285.162 146.632C285.177 146.708 285.177 146.786 285.162 146.862V147.543C285.153 148.419 285.091 149.295 284.978 150.165C284.567 153.391 283.359 156.464 281.464 159.107C280.82 159.974 280.072 160.759 279.237 161.444C278.317 162.187 277.274 162.763 276.155 163.146C274.949 163.542 273.672 163.671 272.411 163.523C271.079 163.332 269.803 162.862 268.666 162.143C266.286 160.524 264.444 158.23 263.376 155.556C262.192 152.73 261.582 149.696 261.582 146.632C261.582 143.567 262.192 140.534 263.376 137.707C264.444 135.033 266.286 132.74 268.666 131.12C269.803 130.401 271.079 129.931 272.411 129.74C273.672 129.593 274.949 129.721 276.155 130.117C277.274 130.5 278.317 131.076 279.237 131.819C280.074 132.502 280.822 133.287 281.464 134.156C283.362 136.798 284.57 139.872 284.978 143.099C285.091 143.965 285.152 144.838 285.162 145.712V146.402C285.169 146.454 285.169 146.506 285.162 146.558Z" fill="#1D1B20"/>
<path d="M275.3 156.292C279.4 156.292 282.724 151.514 282.724 145.62C282.724 139.726 279.4 134.947 275.3 134.947C271.199 134.947 267.875 139.726 267.875 145.62C267.875 151.514 271.199 156.292 275.3 156.292Z" fill="#455A64"/>
<path d="M282.724 145.62C282.669 145.62 282.724 144.81 282.458 143.384C282.15 141.385 281.36 139.49 280.157 137.864C279.34 136.748 278.205 135.905 276.901 135.444C276.177 135.211 275.41 135.139 274.656 135.233C273.86 135.351 273.098 135.636 272.42 136.07C270.976 137.075 269.86 138.483 269.209 140.118C268.481 141.867 268.109 143.744 268.114 145.638C268.105 147.533 268.478 149.41 269.209 151.158C269.86 152.793 270.976 154.201 272.42 155.206C273.098 155.64 273.86 155.925 274.656 156.044C275.41 156.137 276.177 156.065 276.901 155.832C278.205 155.371 279.34 154.528 280.157 153.412C281.36 151.786 282.15 149.891 282.458 147.892C282.688 146.466 282.669 145.656 282.724 145.666C282.737 145.859 282.737 146.052 282.724 146.245C282.723 146.805 282.686 147.365 282.614 147.92C282.37 149.984 281.607 151.953 280.397 153.642C279.554 154.835 278.366 155.74 276.993 156.237C276.218 156.5 275.395 156.588 274.582 156.494C273.72 156.361 272.896 156.047 272.162 155.574C270.633 154.537 269.448 153.066 268.758 151.351C267.999 149.541 267.609 147.597 267.609 145.633C267.609 143.67 267.999 141.726 268.758 139.916C269.448 138.201 270.633 136.73 272.162 135.693C272.893 135.221 273.714 134.908 274.573 134.773C275.389 134.679 276.215 134.767 276.993 135.03C278.366 135.527 279.554 136.432 280.397 137.625C281.607 139.314 282.37 141.283 282.614 143.347C282.686 143.902 282.723 144.462 282.724 145.022C282.737 145.221 282.737 145.421 282.724 145.62Z" fill="#1D1B20"/>
<path d="M275.815 153.293C278.762 153.293 281.151 149.857 281.151 145.62C281.151 141.382 278.762 137.947 275.815 137.947C272.868 137.947 270.479 141.382 270.479 145.62C270.479 149.857 272.868 153.293 275.815 153.293Z" fill="#455A64"/>
<path d="M281.151 145.62C281.105 145.62 281.105 145.04 280.939 144.019C280.703 142.583 280.129 141.224 279.265 140.054C278.683 139.26 277.875 138.66 276.947 138.333C276.418 138.164 275.858 138.117 275.308 138.195C274.758 138.273 274.233 138.474 273.772 138.784C271.776 140.1 270.718 142.86 270.709 145.61C270.7 148.361 271.776 151.131 273.772 152.446C274.233 152.756 274.758 152.957 275.308 153.036C275.858 153.114 276.418 153.066 276.947 152.897C277.875 152.57 278.683 151.971 279.265 151.177C280.129 150.006 280.703 148.647 280.939 147.211C281.105 146.19 281.105 145.61 281.151 145.62C281.173 145.757 281.173 145.897 281.151 146.034C281.156 146.436 281.134 146.839 281.087 147.239C280.921 148.734 280.377 150.162 279.504 151.388C278.883 152.237 278.021 152.878 277.029 153.228C276.464 153.418 275.865 153.484 275.272 153.422C274.644 153.335 274.042 153.115 273.506 152.778C272.392 152.024 271.53 150.953 271.031 149.705C270.477 148.395 270.192 146.987 270.192 145.564C270.192 144.142 270.477 142.734 271.031 141.424C271.53 140.176 272.392 139.105 273.506 138.351C274.042 138.014 274.644 137.794 275.272 137.707C275.865 137.645 276.464 137.711 277.029 137.901C278.021 138.251 278.883 138.892 279.504 139.741C280.377 140.966 280.921 142.395 281.087 143.89C281.134 144.29 281.156 144.693 281.151 145.095C281.184 145.269 281.184 145.446 281.151 145.62Z" fill="#1D1B20"/>
</svg>
